<svg xmlns="http://www.w3.org/2000/svg" xmlns:xlink="http://www.w3.org/1999/xlink" width="440" zoomAndPan="magnify" viewBox="0 0 330 68.999997" height="92" preserveAspectRatio="xMidYMid meet" version="1.0"><defs><g/><clipPath id="6c0f460599"><path d="M 22.828125 3.164062 L 82.828125 3.164062 L 82.828125 66 L 22.828125 66 Z M 22.828125 3.164062 " clip-rule="nonzero"/></clipPath></defs><g clip-path="url(#6c0f460599)"><path fill="#004aad" d="M 82.410156 4.175781 C 82.175781 3.617188 81.664062 3.269531 81.0625 3.269531 L 53.46875 3.269531 C 51.746094 3.269531 50.375 4.664062 50.375 6.359375 L 50.375 10.917969 L 45.609375 10.917969 C 43.890625 10.917969 42.519531 12.3125 42.519531 14.007812 L 42.519531 50.457031 C 42.519531 52.109375 42.214844 53.6875 41.660156 55.128906 C 40.289062 55.617188 38.824219 55.875 37.289062 55.875 C 35.546875 55.875 33.847656 55.527344 32.246094 54.875 C 31.800781 54.6875 31.292969 54.78125 30.964844 55.109375 L 23.246094 62.664062 C 22.96875 62.941406 22.828125 63.335938 22.921875 63.730469 C 22.992188 64.128906 23.269531 64.453125 23.621094 64.59375 C 25.457031 65.359375 27.433594 65.730469 29.429688 65.730469 C 35.570312 65.730469 40.890625 62.082031 43.308594 56.851562 C 48.75 54.503906 52.5625 49.109375 52.5625 42.832031 L 52.5625 37.554688 L 58.605469 37.554688 C 58.976562 37.554688 59.347656 37.417969 59.628906 37.136719 L 66.742188 30.210938 C 67.160156 29.792969 67.300781 29.164062 67.066406 28.628906 C 66.835938 28.070312 66.324219 27.722656 65.71875 27.722656 L 52.585938 27.722656 L 52.585938 13.101562 L 73.996094 13.101562 C 74.367188 13.101562 74.738281 12.960938 75.015625 12.683594 L 82.128906 5.753906 C 82.503906 5.335938 82.640625 4.734375 82.410156 4.175781 Z M 29.429688 63.546875 C 28.246094 63.546875 27.058594 63.382812 25.945312 63.082031 L 32.011719 57.152344 C 33.683594 57.78125 35.453125 58.082031 37.265625 58.082031 C 38.289062 58.082031 39.289062 57.988281 40.265625 57.78125 C 37.917969 61.269531 33.941406 63.546875 29.429688 63.546875 Z M 50.375 42.808594 C 50.375 47.4375 47.957031 51.503906 44.332031 53.828125 C 44.589844 52.738281 44.703125 51.621094 44.703125 50.457031 L 44.703125 37.535156 L 50.375 37.535156 Z M 50.375 35.347656 L 44.703125 35.347656 L 44.703125 14.007812 C 44.703125 13.496094 45.121094 13.101562 45.609375 13.101562 L 50.351562 13.101562 L 50.351562 35.347656 Z M 63.90625 29.886719 L 58.304688 35.347656 L 52.5625 35.347656 L 52.5625 29.886719 Z M 73.667969 10.917969 L 52.5625 10.917969 L 52.5625 6.359375 C 52.5625 5.847656 52.980469 5.453125 53.46875 5.453125 L 79.269531 5.453125 Z M 73.667969 10.917969 " fill-opacity="1" fill-rule="nonzero"/></g><g fill="#004aad" fill-opacity="0.302"><g transform="translate(11.062248, 43.021612)"><g><path d="M 12.828125 -2.40625 L 1.046875 -7.59375 L 1.046875 -9.296875 L 12.828125 -15.171875 L 12.828125 -12.328125 L 4.703125 -8.578125 L 12.828125 -5.25 Z M 12.828125 -2.40625 "/></g></g></g><g fill="#004aad" fill-opacity="0.502"><g transform="translate(9.98894, 41.948305)"><g><path d="M 12.828125 -2.40625 L 1.046875 -7.59375 L 1.046875 -9.296875 L 12.828125 -15.171875 L 12.828125 -12.328125 L 4.703125 -8.578125 L 12.828125 -5.25 Z M 12.828125 -2.40625 "/></g></g></g><g fill="#004aad" fill-opacity="1"><g transform="translate(8.915631, 40.874996)"><g><path d="M 12.828125 -2.40625 L 1.046875 -7.59375 L 1.046875 -9.296875 L 12.828125 -15.171875 L 12.828125 -12.328125 L 4.703125 -8.578125 L 12.828125 -5.25 Z M 12.828125 -2.40625 "/></g></g></g><g fill="#004aad" fill-opacity="0.302"><g transform="translate(24.960684, 43.021612)"><g/></g></g><g fill="#004aad" fill-opacity="0.302"><g transform="translate(33.507715, 43.021612)"><g/></g></g><g fill="#004aad" fill-opacity="0.302"><g transform="translate(42.054746, 43.021612)"><g/></g></g><g fill="#004aad" fill-opacity="0.302"><g transform="translate(50.601777, 43.021612)"><g/></g></g><g fill="#004aad" fill-opacity="0.302"><g transform="translate(59.148807, 43.021612)"><g/></g></g><g fill="#004aad" fill-opacity="0.302"><g transform="translate(67.695838, 43.021612)"><g/></g></g><g fill="#004aad" fill-opacity="0.302"><g transform="translate(76.242869, 43.021612)"><g/></g></g><g fill="#004aad" fill-opacity="0.502"><g transform="translate(23.887376, 41.948305)"><g/></g></g><g fill="#004aad" fill-opacity="0.502"><g transform="translate(32.434407, 41.948305)"><g/></g></g><g fill="#004aad" fill-opacity="0.502"><g transform="translate(40.981437, 41.948305)"><g/></g></g><g fill="#004aad" fill-opacity="0.502"><g transform="translate(49.528468, 41.948305)"><g/></g></g><g fill="#004aad" fill-opacity="0.502"><g transform="translate(58.075499, 41.948305)"><g/></g></g><g fill="#004aad" fill-opacity="0.502"><g transform="translate(66.622529, 41.948305)"><g/></g></g><g fill="#004aad" fill-opacity="0.502"><g transform="translate(75.16956, 41.948305)"><g/></g></g><g fill="#004aad" fill-opacity="1"><g transform="translate(22.814068, 40.874996)"><g/></g></g><g fill="#004aad" fill-opacity="1"><g transform="translate(31.361098, 40.874996)"><g/></g></g><g fill="#004aad" fill-opacity="1"><g transform="translate(39.908129, 40.874996)"><g/></g></g><g fill="#004aad" fill-opacity="1"><g transform="translate(48.45516, 40.874996)"><g/></g></g><g fill="#004aad" fill-opacity="1"><g transform="translate(57.002191, 40.874996)"><g/></g></g><g fill="#004aad" fill-opacity="1"><g transform="translate(65.549221, 40.874996)"><g/></g></g><g fill="#004aad" fill-opacity="1"><g transform="translate(74.096252, 40.874996)"><g/></g></g><g fill="#004aad" fill-opacity="0.302"><g transform="translate(84.796617, 43.021612)"><g><path d="M 1.046875 -5.25 L 9.15625 -8.578125 L 1.046875 -12.328125 L 1.046875 -15.171875 L 12.828125 -9.296875 L 12.828125 -7.59375 L 1.046875 -2.40625 Z M 1.046875 -5.25 "/></g></g></g><g fill="#004aad" fill-opacity="0.502"><g transform="translate(83.723308, 41.948305)"><g><path d="M 1.046875 -5.25 L 9.15625 -8.578125 L 1.046875 -12.328125 L 1.046875 -15.171875 L 12.828125 -9.296875 L 12.828125 -7.59375 L 1.046875 -2.40625 Z M 1.046875 -5.25 "/></g></g></g><g fill="#004aad" fill-opacity="1"><g transform="translate(82.65, 40.874996)"><g><path d="M 1.046875 -5.25 L 9.15625 -8.578125 L 1.046875 -12.328125 L 1.046875 -15.171875 L 12.828125 -9.296875 L 12.828125 -7.59375 L 1.046875 -2.40625 Z M 1.046875 -5.25 "/></g></g></g><path stroke-linecap="butt" transform="matrix(0.75, 0, 0, 0.75, 119.309126, 16.499998)" fill="none" stroke-linejoin="miter" d="M 4.947208 22.145838 L 4.947208 34.000006 L 4.431583 34.000006 C 4.431583 29.953131 4.431583 25.916672 4.431583 21.89063 C 4.431583 17.85938 4.431583 13.817713 4.431583 9.776046 L 17.494084 9.776046 L 17.494084 10.291671 L 4.947208 10.291671 L 4.947208 21.593755 L 16.040959 21.593755 L 16.040959 22.145838 Z M 24.702418 9.776046 L 24.702418 33.442714 L 37.733669 33.442714 L 37.733669 34.000006 C 35.468044 34.000006 33.202418 34.000006 30.936793 34.000006 C 28.676376 34.000006 26.410751 34.000006 24.150334 34.000006 L 24.150334 9.776046 Z M 67.921171 21.864588 C 67.921171 20.229172 67.61388 18.687505 66.999296 17.244796 C 66.389921 15.802088 65.551379 14.546879 64.488879 13.479171 C 63.426379 12.395838 62.176379 11.536463 60.728462 10.901046 C 59.285754 10.260421 57.744087 9.942712 56.103462 9.942712 C 54.48367 9.942712 52.957628 10.260421 51.525337 10.901046 C 50.093045 11.536463 48.832628 12.395838 47.749295 13.479171 C 46.686795 14.546879 45.848253 15.802088 45.218044 17.244796 C 44.593044 18.687505 44.280544 20.229172 44.280544 21.864588 C 44.280544 23.505214 44.593044 25.04688 45.218044 26.479172 C 45.848253 27.911464 46.686795 29.171881 47.749295 30.260422 C 48.832628 31.343756 50.093045 32.203131 51.525337 32.838548 C 52.957628 33.473964 54.48367 33.786464 56.103462 33.786464 C 57.744087 33.786464 59.285754 33.473964 60.728462 32.838548 C 62.176379 32.203131 63.426379 31.343756 64.488879 30.260422 C 65.551379 29.171881 66.389921 27.911464 66.999296 26.479172 C 67.61388 25.04688 67.921171 23.505214 67.921171 21.864588 Z M 43.728461 21.864588 C 43.728461 20.156255 44.056586 18.54688 44.712836 17.036463 C 45.374294 15.520838 46.259711 14.197921 47.369086 13.067713 C 48.473253 11.906254 49.785753 11.010421 51.29617 10.364587 C 52.811795 9.718754 54.415962 9.390629 56.103462 9.390629 C 57.811796 9.390629 59.415962 9.718754 60.915962 10.364587 C 62.421171 11.010421 63.738879 11.906254 64.869088 13.067713 C 65.978463 14.197921 66.86388 15.520838 67.514921 17.036463 C 68.17638 18.54688 68.504505 20.156255 68.504505 21.864588 C 68.504505 23.57813 68.17638 25.192714 67.514921 26.708339 C 66.86388 28.218756 65.978463 29.541672 64.869088 30.671881 C 63.738879 31.802089 62.421171 32.697923 60.915962 33.359381 C 59.415962 34.015631 57.811796 34.348964 56.103462 34.348964 C 54.415962 34.348964 52.811795 34.015631 51.29617 33.359381 C 49.785753 32.697923 48.473253 31.802089 47.369086 30.671881 C 46.259711 29.541672 45.374294 28.218756 44.712836 26.708339 C 44.056586 25.192714 43.728461 23.57813 43.728461 21.864588 Z M 94.535757 34.244798 L 88.546173 17.29688 L 82.577423 34.244798 L 82.098256 34.244798 L 73.983672 9.776046 L 74.540964 9.776046 L 82.343048 33.338548 L 88.165965 16.838546 L 88.926381 16.838546 L 94.749299 33.338548 L 102.582633 9.776046 L 103.134716 9.776046 L 95.02534 34.244798 Z M 116.999301 34.000006 L 116.473259 34.000006 L 116.473259 10.291671 L 108.087841 10.291671 L 108.087841 9.739587 L 125.384718 9.739587 L 125.384718 10.291671 L 116.999301 10.291671 Z M 132.415969 10.291671 L 132.415969 34.000006 L 131.900343 34.000006 L 131.900343 9.739587 L 140.285761 9.739587 C 141.900344 9.739587 143.244094 10.083337 144.317011 10.765629 C 145.395136 11.442713 146.202428 12.317713 146.744095 13.395838 C 147.29097 14.468754 147.567011 15.60938 147.567011 16.822921 C 147.567011 18.036463 147.29097 19.182297 146.744095 20.260422 C 146.202428 21.32813 145.395136 22.208338 144.317011 22.89063 C 143.244094 23.572922 141.900344 23.911464 140.285761 23.911464 L 136.369094 23.911464 L 147.530553 34.000006 L 146.733678 34.000006 L 135.572219 23.911464 L 135.572219 23.395839 L 140.285761 23.395839 C 141.790969 23.395839 143.040969 23.07813 144.046178 22.442713 C 145.051386 21.802088 145.801386 20.989588 146.296178 19.994797 C 146.79097 19.005213 147.04097 17.95313 147.04097 16.848963 C 147.04097 15.73438 146.79097 14.682296 146.296178 13.692713 C 145.801386 12.697921 145.051386 11.885421 144.046178 11.244796 C 143.040969 10.609379 141.790969 10.291671 140.285761 10.291671 Z M 163.192013 10.119796 L 157.306596 25.333339 L 169.124305 25.333339 Z M 172.655555 34.000006 L 169.32743 25.848964 L 157.056596 25.848964 L 153.764929 34.000006 L 153.176387 34.000006 L 162.915971 9.390629 L 163.504513 9.390629 L 173.244097 34.000006 Z M 201.530558 17.151046 L 200.936808 17.151046 C 200.660766 16.510421 200.327433 15.906255 199.931599 15.343755 C 199.540974 14.770838 199.119099 14.244796 198.655557 13.760421 C 197.634724 12.697921 196.436807 11.869796 195.056599 11.270837 C 193.686807 10.666671 192.212849 10.364587 190.639932 10.364587 C 189.093057 10.364587 187.629515 10.666671 186.23889 11.270837 C 184.853473 11.869796 183.650348 12.697921 182.634723 13.760421 C 181.619098 14.817713 180.811806 16.04688 180.207639 17.447921 C 179.608681 18.848963 179.311806 20.333338 179.311806 21.901047 C 179.311806 23.494797 179.608681 24.994797 180.207639 26.39063 C 180.811806 27.791672 181.619098 29.010422 182.634723 30.046881 C 183.650348 31.109381 184.853473 31.947923 186.23889 32.562506 C 187.629515 33.177089 189.093057 33.484381 190.639932 33.484381 C 192.212849 33.484381 193.686807 33.177089 195.056599 32.562506 C 196.436807 31.947923 197.634724 31.109381 198.655557 30.046881 C 199.119099 29.562506 199.540974 29.041672 199.931599 28.489589 C 200.327433 27.932297 200.660766 27.333339 200.936808 26.687505 L 201.530558 26.687505 C 200.952433 28.098964 200.119099 29.359381 199.035766 30.463547 C 197.968057 31.572923 196.712849 32.447923 195.270141 33.088548 C 193.827432 33.718756 192.280557 34.031256 190.639932 34.031256 C 189.004515 34.031256 187.468057 33.718756 186.035765 33.088548 C 184.603473 32.447923 183.343056 31.572923 182.254514 30.463547 C 181.192014 29.380214 180.353473 28.104172 179.723264 26.64063 C 179.103472 25.17188 178.796181 23.593755 178.796181 21.901047 C 178.796181 20.239588 179.103472 18.677088 179.723264 17.213546 C 180.353473 15.739588 181.192014 14.463546 182.254514 13.380213 C 183.343056 12.265629 184.603473 11.395838 186.035765 10.765629 C 187.468057 10.125004 189.004515 9.807296 190.639932 9.807296 C 192.280557 9.807296 193.827432 10.125004 195.270141 10.765629 C 196.712849 11.395838 197.968057 12.265629 199.035766 13.380213 C 200.119099 14.484379 200.952433 15.739588 201.530558 17.151046 Z M 208.598267 9.776046 L 209.1191 9.776046 L 209.1191 34.000006 L 208.598267 34.000006 Z M 209.910767 22.145838 L 209.910767 21.593755 L 222.56181 9.776046 L 223.254518 9.776046 L 210.40035 21.833338 L 223.848268 34.000006 L 223.051393 34.000006 Z M 230.119102 22.145838 L 230.119102 33.484381 L 243.014936 33.484381 L 243.014936 34.000006 L 229.567018 34.000006 L 229.567018 9.776046 L 242.947228 9.776046 L 242.947228 10.291671 L 230.119102 10.291671 L 230.119102 21.593755 L 242.665978 21.593755 L 242.665978 22.145838 Z M 250.499312 10.291671 L 250.499312 34.000006 L 249.983687 34.000006 L 249.983687 9.739587 L 258.369104 9.739587 C 259.983688 9.739587 261.322229 10.083337 262.395146 10.765629 C 263.473271 11.442713 264.285771 12.317713 264.82223 13.395838 C 265.374313 14.468754 265.645147 15.60938 265.645147 16.822921 C 265.645147 18.036463 265.374313 19.182297 264.82223 20.260422 C 264.285771 21.32813 263.473271 22.208338 262.395146 22.89063 C 261.322229 23.572922 259.983688 23.911464 258.369104 23.911464 L 254.452437 23.911464 L 265.613897 34.000006 L 264.817021 34.000006 L 253.655562 23.911464 L 253.655562 23.395839 L 258.369104 23.395839 C 259.869104 23.395839 261.119104 23.07813 262.124313 22.442713 C 263.129521 21.802088 263.879521 20.989588 264.374313 19.994797 C 264.874313 19.005213 265.119105 17.95313 265.119105 16.848963 C 265.119105 15.73438 264.874313 14.682296 264.374313 13.692713 C 263.879521 12.697921 263.129521 11.885421 262.124313 11.244796 C 261.119104 10.609379 259.869104 10.291671 258.369104 10.291671 Z M 250.499312 10.291671 " stroke="#004aad" stroke-width="2.166644" stroke-opacity="1" stroke-miterlimit="4"/></svg>